PathFileType	4	(X/Y/Z)	S00_P01_T02_Participants1-2_P2_0-100.trc
DataRate	CameraRate	NumFrames	NumMarkers	Units	OrigDataRate	OrigDataStartFrame	OrigNumFrames
60	60	5	21	m	60	12	100
Frame#	Time	RHip			RKnee			RAnkle			RBigToe			RSmallToe			RHeel			LHip			LKnee			LAnkle			LBigToe			LSmallToe			LHeel			Neck			Head			Nose			RShoulder			RElbow			RWrist			LShoulder			LElbow			LWrist		
		X1	Y1	Z1	X2	Y2	Z2	X3	Y3	Z3	X4	Y4	Z4	X5	Y5	Z5	X6	Y6	Z6	X7	Y7	Z7	X8	Y8	Z8	X9	Y9	Z9	X10	Y10	Z10	X11	Y11	Z11	X12	Y12	Z12	X13	Y13	Z13	X14	Y14	Z14	X15	Y15	Z15	X16	Y16	Z16	X17	Y17	Z17	X18	Y18	Z18	X19	Y19	Z19	X20	Y20	Z20	X21	Y21	Z21
13	0.2166666666666666	-0.11238430683264468	0.9267175648059317	-1.2779503226011664	-0.11968404016128567	0.5286515203488374	-1.2719107552171307	0.0028132686712881764	0.1868631684792622	-1.5645237563408474	-0.031058599207465176	0.0756100470109473	-1.4273773511125758	-0.03366306288061815	0.08706706251183045	-1.4862078117199102	0.035311333648439865	0.17323731290354594	-1.6054342842715708	0.05092824079451135	0.9020004396402682	-1.316136982634782	0.00563932699155828	0.5095867559740322	-1.1270822105379523	-0.0019745522648992302	0.15988706208912962	-1.1690201684141315	-0.02612190328626614	0.08251222612330611	-0.9997501974753522	-0.0005844673800168244	0.10119795745826118	-1.0029881024181229	0.0077254970231548075	0.12364553692120422	-1.1954671285916916	0.0794836543931537	1.4640288849779128	-1.2628138512525264	0.11715667156540989	1.693443175323349	-1.1370240043629753	0.09336312345191512	1.551712316583982	-1.085761759357156	-0.08850070523985562	1.4346555995428176	-1.3152501978393862	-0.2948037481966416	1.2704050892850156	-1.356833246379747	-0.42219133888506216	1.1749943066286457	-1.1527494552583006	0.21643164136870482	1.3709166144207707	-1.3161205330217254	0.3193170077031874	1.0978072670708743	-1.3222718722997953	0.376285963736521	0.8517882927266437	-1.2562849663667592
14	0.2333333333333333	-0.11637423933202776	0.9279088815241281	-1.2697394858934132	-0.13338608951794262	0.523897656273359	-1.2563405704006596	-0.009050562699144804	0.19524988929186507	-1.552430836138012	-0.03738941392660258	0.07930849976610319	-1.4209525308391573	-0.04040013529584469	0.09167698128826215	-1.4768964920755776	0.024631508582991842	0.1857183633563019	-1.5917511383228962	0.045078046700994356	0.9005044281266916	-1.30796194751272	-0.00035780932569266734	0.5110334717399898	-1.1176124002165861	-0.0024289876279964214	0.16029871813669735	-1.1663227264058256	-0.01954831247353933	0.08593212866374986	-1.000731661546761	0.002155119787652038	0.09889430932331371	-1.006317691288255	0.007850759176208462	0.1218789360698661	-1.2015300706617158	0.090423565403138	1.4613430583624565	-1.2511374329406333	0.13364468446671304	1.6911150631583758	-1.1212396440088606	0.10761625665778159	1.5473182215260632	-1.0802081120883178	-0.07973337135147772	1.435150879879018	-1.306786355568885	-0.2934657506713979	1.2848459403601598	-1.3424888934939876	-0.4264350394200051	1.2088186187836367	-1.1351782258981995	0.22380992579716244	1.3622998497257839	-1.3030516066312987	0.3248441917389472	1.0876706069332573	-1.3060536388954145	0.3768802417664579	0.8420160151521958	-1.2340629585065988
15	0.25	-0.12053117209572457	0.9295437254374236	-1.2618823060643731	-0.14882180683338347	0.5207678904746729	-1.2401227877584629	-0.022818103417038934	0.20506631477029294	-1.5364762417148121	-0.04766048911036147	0.08472989536650065	-1.4114575135513212	-0.05118216599392653	0.09811510659801907	-1.463885953084673	0.011712610530601165	0.19780003018469502	-1.5770327181888266	0.03884571858108535	0.8987120200069305	-1.3003672728885516	-0.007018753985087088	0.510951871432698	-1.1069479550805523	-0.0035560957277752468	0.15866752746208118	-1.164773814799318	-0.013736846738541298	0.08830958851359362	-1.001868375508723	0.0054537325947704475	0.09547401492488222	-1.0114964433141558	0.007562560101546181	0.11899411741447205	-1.2069091864035817	0.10055642078230387	1.457459992712888	-1.2405613179509782	0.15015701580292676	1.6885776199817886	-1.1041594453640624	0.12028223576828219	1.5423000170138599	-1.0733320010910072	-0.06984246885537893	1.4352733744683515	-1.2987697204274842	-0.2900913334920721	1.2989858134594985	-1.326713034449646	-0.4280617721508638	1.242767465570554	-1.1184770139168667	0.2337739844783273	1.3525551345061266	-1.2866321572804666	0.3298177223131276	1.076817944784591	-1.2897659895164868	0.376181569629109	0.8320930200724057	-1.2124557879878715
16	0.2666666666666666	-0.12471792736518414	0.9316701492716646	-1.254327370100518	-0.16692268591846227	0.5209041480404292	-1.2215957715108112	-0.03884248105738681	0.21586434874911267	-1.5165470932043297	-0.06294911523917013	0.09167982150588466	-1.3983090590766734	-0.06686072692176301	0.10600478175059998	-1.4472308375843934	-0.0032811281990647364	0.2087771319990792	-1.5607817017154788	0.032465568039572186	0.896605983201416	-1.2932219274341166	-0.015099791743690711	0.5094943840056899	-1.0968274071471522	-0.005203274592744821	0.15468804871633626	-1.1653276903004377	-0.008861070667686046	0.08970636441341823	-1.0029392808471596	0.0098528259407842	0.09201588939752939	-1.0175114979142976	0.007003051203022281	0.11501698177525387	-1.2123433208092047	0.10994079003957827	1.4525793198453143	-1.2308973731996904	0.16654172328254366	1.6854650796269428	-1.0876840991034293	0.13138911965588398	1.536907632936825	-1.0642533551173454	-0.05924877021321141	1.4352801725647777	-1.2915830815064795	-0.2847234468595463	1.3125231838115878	-1.3104101308482559	-0.4265855245611406	1.276063823945637	-1.101868798360287	0.24565291254488994	1.3423058509424455	-1.2680066474588048	0.33390444857342794	1.0658325062732115	-1.2738899594484527	0.3745318424416154	0.821898254323552	-1.1935873212844479
17	0.2833333333333333	-0.12888026391498472	0.9341710377711072	-1.2468692871495857	-0.18780837318333374	0.5245874156575132	-1.2014246889773201	-0.057680444333177254	0.2268543540535451	-1.493258627576284	-0.08361528634353928	0.09958611111128206	-1.3813626211757704	-0.08805660668743523	0.11471052343195419	-1.4274088081763603	-0.020389589477922982	0.2182630890672589	-1.5425578257954804	0.02649704524135637	0.894315259293495	-1.2862565362409537	-0.02459418045563435	0.5072205707434454	-1.088258240726261	-0.00707803644156347	0.14919586057170434	-1.167629114433409	-0.00536197461400437	0.0905012721023194	-1.0035139432030458	0.015168231055537959	0.08884450865016082	-1.0241656055393278	0.006435869001239849	0.11065732486907537	-1.2182588509573777	0.11885505630322112	1.4470767570508316	-1.2214112265158068	0.18206267127667344	1.6811827466580027	-1.073754783082705	0.14099753605524443	1.5312529635882035	-1.0534472185148276	-0.04845183221711331	1.4354312063372177	-1.2842966383130963	-0.27779865575394674	1.3253437748115737	-1.2947165019277054	-0.4220985172026507	1.3076819687555976	-1.0855557200317065	0.25774107029305665	1.3324443045519758	-1.2493295353124418	0.3369630459395038	1.0552278721037969	-1.2582857103459408	0.3724310565391734	0.8115720352673842	-1.1785497331495973
